
<svg width="24" height="24" viewBox="0 0 24 24" fill="none" xmlns="http://www.w3.org/2000/svg">
<path d="M10.75 9H12.25V8.25C12.25 8.05109 12.329 7.86032 12.4697 7.71967C12.6103 7.57902 12.8011 7.5 13 7.5H15.25C15.4489 7.5 15.6397 7.57902 15.7803 7.71967C15.921 7.86032 16 8.05109 16 8.25V9H19V6C19 5.20435 18.6839 4.44129 18.1213 3.87868C17.5587 3.31607 16.7956 3 16 3H7C6.20435 3 5.44129 3.31607 4.87868 3.87868C4.31607 4.44129 4 5.20435 4 6V9H7V8.25C7 8.05109 7.07902 7.86032 7.21967 7.71967C7.36032 7.57902 7.55109 7.5 7.75 7.5H10C10.1989 7.5 10.3897 7.57902 10.5303 7.71967C10.671 7.86032 10.75 8.05109 10.75 8.25V9Z" fill="#E2DBC3"/>
<path d="M4.75 10.5C3.75544 10.5 2.80161 10.8951 2.09835 11.5983C1.39509 12.3016 1 13.2554 1 14.25V20.25C1 20.4489 1.07902 20.6397 1.21967 20.7803C1.36032 20.921 1.55109 21 1.75 21C1.94891 21 2.13968 20.921 2.28033 20.7803C2.42098 20.6397 2.5 20.4489 2.5 20.25V16.5H20.5V20.25C20.5 20.4489 20.579 20.6397 20.7197 20.7803C20.8603 20.921 21.0511 21 21.25 21C21.4489 21 21.6397 20.921 21.7803 20.7803C21.921 20.6397 22 20.4489 22 20.25V14.25C22 13.2554 21.6049 12.3016 20.9016 11.5983C20.1984 10.8951 19.2446 10.5 18.25 10.5H4.75Z" fill="#E2DBC3"/>
</svg>
